# xmcd
#
# Track frame offsets: 
#        150
#        17176
#        36190
#        62560
#        82554
#        84710
#        106712
#        121575
#        142094
#        157110
#
# Disc length: 2329 seconds
#
# Revision: 0
# Processed by: cddbd v1.5.1PL0 Copyright (c) Steve Scherf et al.
# Submitted via: ExactAudioCopy v0.95a5
#
DISCID=7309170a
DTITLE=Deanna Dove - Chesapeake
DYEAR=2002
DGENRE=Country
TTITLE0=Jam Up and Jelly Tight
TTITLE1=Going, Going, Gone (aka Breakfast)
TTITLE2=Chesapeake
TTITLE3=Mean Streak
TTITLE4=Yaaka Hula Hickey Dula
TTITLE5=Back To The Island
TTITLE6=Cheshire Grins and Mango Dreams
TTITLE7=River Of Tears
TTITLE8=Lula J
TTITLE9=Rivers Flow To The Sea
EXTD=
EXTT0=
EXTT1=
EXTT2=
EXTT3=
EXTT4=
EXTT5=
EXTT6=
EXTT7=
EXTT8=
EXTT9=
PLAYORDER=
